<?xml version="1.0" encoding="UTF-8"?>
<svg id="Layer_1" data-name="Layer 1" xmlns="http://www.w3.org/2000/svg" xmlns:xlink="http://www.w3.org/1999/xlink" viewBox="0 0 274.92 181.88">
  <defs>
    <style>
      .cls-1 {
        fill: url(#linear-gradient);
      }

      .cls-2 {
        fill: #ef516f;
      }
    </style>
    <linearGradient id="linear-gradient" x1="70.04" y1="90.94" x2="207.71" y2="90.94" gradientUnits="userSpaceOnUse">
      <stop offset="0" stop-color="#f9c825"/>
      <stop offset=".1" stop-color="#f6af34"/>
      <stop offset=".27" stop-color="#f48d49"/>
      <stop offset=".45" stop-color="#f17359"/>
      <stop offset=".62" stop-color="#f06065"/>
      <stop offset=".81" stop-color="#ef546c"/>
      <stop offset="1" stop-color="#ef516f"/>
    </linearGradient>
  </defs>
  <path class="cls-1" d="m85.13,181.88c-1.59,0-3.21-.25-4.81-.79-7.9-2.65-12.15-11.21-9.49-19.11L121.83,10.28C123.87,4.22,129.5.11,135.89,0c6.53-.14,12.15,3.83,14.38,9.82l56.49,151.7c2.91,7.81-1.06,16.49-8.87,19.4-7.81,2.91-16.5-1.06-19.4-8.87l-41.63-111.79-37.43,111.33c-2.12,6.3-8,10.28-14.3,10.28Z"/>
  <path class="cls-2" d="m225.8,127.01c-.69,0-1.38-.07-2.08-.21l-30.71-6.13c-36.86-7.35-74.23-7.35-111.09,0l-30.71,6.13c-5.71,1.14-11.28-2.57-12.42-8.29-1.14-5.72,2.57-11.28,8.29-12.42l30.71-6.13c39.6-7.89,79.75-7.89,119.35,0l30.71,6.13c5.72,1.14,9.43,6.7,8.29,12.42-1,5.02-5.41,8.5-10.35,8.5Z"/>
  <rect class="cls-2" x="20.85" y="97.68" width="13.1" height="51.64" rx="6.03" ry="6.03" transform="translate(-22.49 7.25) rotate(-10.72)"/>
  <rect class="cls-2" x="1.95" y="109.97" width="13.1" height="33.07" rx="6.03" ry="6.03" transform="translate(-23.38 3.79) rotate(-10.72)"/>
  <rect class="cls-2" x="240.97" y="94.25" width="13.1" height="51.64" rx="6.03" ry="6.03" transform="translate(468.39 284.07) rotate(-169.28)"/>
  <rect class="cls-2" x="259.87" y="109.56" width="13.1" height="33.07" rx="6.03" ry="6.03" transform="translate(504.76 299.53) rotate(-169.28)"/>
</svg>